<svg xmlns="http://www.w3.org/2000/svg" width="24" height="23" viewBox="0 0 24 23">
  <g id="Grupo_95" data-name="Grupo 95" transform="translate(-573 2382) rotate(-90)">
    <g id="Componente_2_2" data-name="Componente 2 – 2" transform="translate(2359 573)">
      <g id="Retângulo_41" data-name="Retângulo 41" fill="#000101" stroke="#fff" stroke-linejoin="bevel" stroke-width="1">
        <rect width="23" height="24" rx="6" stroke="none"/>
        <rect x="0.5" y="0.5" width="22" height="23" rx="5.5" fill="none"/>
      </g>
    </g>
    <path id="angle-double-down" d="M4.849,63.584.191,58.926a.819.819,0,0,1,0-1.161l.774-.774a.819.819,0,0,1,1.161,0l3.3,3.3,3.3-3.3a.819.819,0,0,1,1.161,0l.781.771a.819.819,0,0,1,0,1.161L6.014,63.581A.82.82,0,0,1,4.849,63.584ZM6.014,70.16,10.671,65.5a.819.819,0,0,0,0-1.161L9.9,63.567a.819.819,0,0,0-1.161,0l-3.3,3.3-3.3-3.3a.819.819,0,0,0-1.161,0l-.777.774a.819.819,0,0,0,0,1.161l4.658,4.658A.82.82,0,0,0,6.014,70.16Z" transform="translate(2364.853 522.101)" fill="#fff"/>
  </g>
</svg>
